<?xml version="1.0" encoding="utf-8"?>
<!-- Generator: Adobe Illustrator 18.0.0, SVG Export Plug-In . SVG Version: 6.00 Build 0)  -->
<!DOCTYPE svg PUBLIC "-//W3C//DTD SVG 1.1//EN" "http://www.w3.org/Graphics/SVG/1.1/DTD/svg11.dtd">
<svg version="1.1" id="Layer_1" xmlns="http://www.w3.org/2000/svg" xmlns:xlink="http://www.w3.org/1999/xlink" x="0px" y="0px"
	 viewBox="0 0 65 79.1" enable-background="new 0 0 65 79.1" xml:space="preserve">
<g>
	<path fill="#FFFFFF" d="M56.6,16.1v57.7c0,1.4-1.1,2.5-2.5,2.5H2.5c-1.4,0-2.5-1.1-2.5-2.5V2.5C0,1.1,1.1,0,2.5,0h35.7"/>
	<path fill="#888888" d="M57.1,16.1h-16c-1.4,0-2.5-1.1-2.5-2.5V0.1"/>
	<g>
		<g>
			<path fill="#888888" d="M48.3,60.6H8.8V28.8h39.5V60.6z M10.5,58.9h36.1V30.5H10.5V58.9z"/>
		</g>
		<g>
			<rect x="9.6" y="39.3" fill="#888888" width="37.8" height="0.9"/>
		</g>
		<g>
			<rect x="9.6" y="49.3" fill="#888888" width="37.8" height="0.9"/>
		</g>
		<g>
			<rect x="21.8" y="29.6" fill="#888888" width="0.9" height="30.1"/>
		</g>
		<g>
			<rect x="34.4" y="29.6" fill="#888888" width="0.9" height="30.1"/>
		</g>
	</g>
	<circle fill="#888888" cx="52.7" cy="66.8" r="12.3"/>
	<g>
		<polygon fill="#FFFFFF" points="50.2,69.9 58.4,61.6 59.6,62.7 50.2,72.1 45.8,67.7 46.9,66.6 		"/>
	</g>
</g>
</svg>
